<?xml version="1.0" encoding="iso-8859-1"?>
<!-- Generator: Adobe Illustrator 16.0.0, SVG Export Plug-In . SVG Version: 6.00 Build 0)  -->
<!DOCTYPE svg PUBLIC "-//W3C//DTD SVG 1.1//EN" "http://www.w3.org/Graphics/SVG/1.1/DTD/svg11.dtd">
<svg version="1.1" xmlns="http://www.w3.org/2000/svg" xmlns:xlink="http://www.w3.org/1999/xlink" x="0px" y="0px"
	 width="669.498px" height="113.073px" viewBox="0 0 669.498 113.073" style="enable-background:new 0 0 669.498 113.073;"
	 xml:space="preserve">
<g id="&#x56FE;&#x5C42;_1">
	<g>
		<path style="fill:none; stroke:#F2EDED;" d="M163.269,90.331c-0.993,5.873-3.21,11.153-6.653,15.841c-3.474,4.533-7.01,6.8-10.608,6.8H98.367
			l14.608-90.331h20.378l-3.629,22.409h27.264c3.473,0,6.234,2.345,8.281,7.032c2.047,4.533,2.621,9.735,1.722,15.608
			L163.269,90.331z M146.473,67.69c0.465-2.937,0.201-5.537-0.791-7.805c-0.993-2.266-2.373-3.399-4.141-3.399H127.91l-7.304,45.281
			h13.585c1.768,0,3.52-1.159,5.257-3.478c1.768-2.421,2.885-5.073,3.35-7.959L146.473,67.69z"/>
		<path style="fill:none; stroke:#F2EDED;" d="M230.962,90.331c-0.93,5.822-3.148,11.102-6.653,15.841c-3.474,4.533-6.995,6.8-10.561,6.8h-34.01
			c-3.66,0-6.467-2.241-8.421-6.723c-2.017-4.739-2.543-10.045-1.582-15.918l3.722-22.641c0.961-5.923,3.148-11.127,6.56-15.608
			c3.473-4.688,7.025-7.032,10.654-7.032h34.056c3.473,0,6.234,2.345,8.281,7.032c2.047,4.533,2.621,9.735,1.721,15.608
			L230.962,90.331z M214.213,67.69c0.403-2.937,0.14-5.537-0.791-7.805c-0.993-2.266-2.373-3.399-4.141-3.399h-6.886
			c-0.869,0-1.768,0.297-2.698,0.889c-0.931,0.593-1.799,1.404-2.605,2.434c-0.807,1.031-1.505,2.229-2.094,3.594
			c-0.589,1.365-0.977,2.795-1.163,4.288l-3.722,22.641c-0.186,1.495-0.202,2.924-0.046,4.289c0.155,1.365,0.457,2.576,0.907,3.631
			c0.449,1.057,1.023,1.907,1.721,2.551c0.698,0.645,1.496,0.966,2.396,0.966h6.839c1.768,0,3.52-1.159,5.257-3.478
			c1.768-2.421,2.885-5.073,3.35-7.959L214.213,67.69z"/>
		<path style="fill:none; stroke:#F2EDED;" d="M300.609,90.331c-0.93,5.822-3.148,11.102-6.653,15.841c-3.474,4.533-6.995,6.8-10.561,6.8h-34.01
			c-3.66,0-6.467-2.241-8.421-6.723c-2.017-4.739-2.543-10.045-1.582-15.918l3.722-22.641c0.961-5.923,3.148-11.127,6.56-15.608
			c3.473-4.688,7.025-7.032,10.654-7.032h34.056c3.473,0,6.234,2.345,8.281,7.032c2.047,4.533,2.621,9.735,1.721,15.608
			L300.609,90.331z M283.861,67.69c0.403-2.937,0.14-5.537-0.791-7.805c-0.993-2.266-2.373-3.399-4.141-3.399h-6.886
			c-0.869,0-1.768,0.297-2.698,0.889c-0.931,0.593-1.799,1.404-2.605,2.434c-0.807,1.031-1.505,2.229-2.094,3.594
			c-0.589,1.365-0.977,2.795-1.163,4.288l-3.722,22.641c-0.186,1.495-0.202,2.924-0.046,4.289c0.155,1.365,0.457,2.576,0.907,3.631
			c0.449,1.057,1.023,1.907,1.721,2.551c0.698,0.645,1.496,0.966,2.396,0.966h6.839c1.768,0,3.52-1.159,5.257-3.478
			c1.768-2.421,2.885-5.073,3.35-7.959L283.861,67.69z"/>
		<path style="fill:none; stroke:#F2EDED;" d="M349.321,96.048c0.465-2.832,0.201-5.459-0.791-7.881c-0.962-2.369-2.343-3.555-4.141-3.555
			h-13.632l-4.56,28.358h-20.424l14.608-90.331h20.378l-8.188,50.767h13.585c0.931,0,1.853-0.32,2.769-0.966
			c0.914-0.644,1.76-1.479,2.535-2.511c0.775-1.03,1.449-2.228,2.024-3.594c0.573-1.364,1-2.743,1.279-4.134l2.745-17.154h20.471
			l-2.141,13.6c-0.683,4.225-2.109,8.218-4.28,11.978c-2.047,3.709-4.404,6.543-7.071,8.5c2.077,1.906,3.535,4.688,4.373,8.345
			c0.931,3.864,1.054,7.831,0.372,11.9l-2.187,13.6h-20.471L349.321,96.048z"/>
		<path style="fill:none; stroke:#F2EDED;" d="M387.146,112.971c-3.66,0-6.467-2.241-8.421-6.723c-2.017-4.739-2.543-10.045-1.582-15.918
			l3.723-22.641c0.961-5.923,3.147-11.127,6.56-15.608c3.474-4.688,7.025-7.032,10.654-7.032h40.803l-1.814,11.437h-27.264
			c-0.869,0-1.769,0.297-2.699,0.889c-0.93,0.593-1.799,1.404-2.604,2.434c-0.808,1.031-1.505,2.229-2.094,3.594
			c-0.59,1.365-0.978,2.795-1.163,4.288l-3.723,22.641c-0.186,1.495-0.202,2.924-0.046,4.289c0.154,1.365,0.457,2.576,0.907,3.631
			c0.449,1.057,1.023,1.907,1.721,2.551c0.698,0.645,1.496,0.966,2.396,0.966h27.217l-1.768,11.204H387.146z"/>
		<path style="fill:none; stroke:#F2EDED;" d="M482.382,67.69c0.465-2.937,0.201-5.537-0.791-7.805c-0.993-2.266-2.373-3.399-4.141-3.399h-13.632
			l-9.119,56.485h-20.424l14.608-90.331h20.378l-3.629,22.409h27.264c3.474,0,6.234,2.345,8.281,7.032
			c2.047,4.533,2.621,9.735,1.722,15.608l-7.351,45.281h-20.472L482.382,67.69z"/>
		<path style="fill:none; stroke:#F2EDED;" d="M566.405,90.331c-0.993,5.977-3.21,11.256-6.653,15.841c-3.474,4.533-6.994,6.8-10.561,6.8h-34.01
			c-3.66,0-6.483-2.241-8.468-6.723c-1.985-4.532-2.497-9.839-1.535-15.918c0.931-5.873,3.147-11.101,6.653-15.687
			c3.566-4.636,7.118-6.954,10.654-6.954h27.17c0.124-1.493,0.108-2.923-0.046-4.288c-0.156-1.365-0.45-2.563-0.885-3.594
			c-0.435-1.029-0.993-1.841-1.675-2.434c-0.683-0.592-1.474-0.889-2.372-0.889h-27.218l1.769-11.437h40.895
			c3.536,0,6.297,2.345,8.282,7.032c2.047,4.533,2.62,9.735,1.721,15.608L566.405,90.331z M534.117,79.126
			c-0.869,0-1.753,0.309-2.652,0.927s-1.744,1.443-2.535,2.473c-0.791,1.031-1.489,2.229-2.094,3.594
			c-0.604,1.365-1.031,2.77-1.279,4.211c-0.187,1.495-0.202,2.924-0.047,4.289s0.449,2.576,0.885,3.631
			c0.434,1.057,1,1.907,1.697,2.551c0.698,0.645,1.513,0.966,2.443,0.966h6.839c1.768,0,3.52-1.159,5.257-3.478
			c1.799-2.369,2.9-5.022,3.304-7.959l1.814-11.204H534.117z"/>
		<path style="fill:none; stroke:#F2EDED;" d="M582.131,45.049h20.378l-10.979,67.922h-20.378L582.131,45.049z M607.068,16.922
			c-0.807,4.482-2.482,8.423-5.024,11.823c-2.605,3.4-5.242,5.1-7.909,5.1c-2.605,0-4.716-1.7-6.328-5.1
			c-1.458-3.605-1.83-7.546-1.116-11.823c0.651-4.43,2.264-8.345,4.839-11.745C594.165,1.727,596.848,0,599.578,0
			c2.667,0,4.714,1.727,6.141,5.177C607.331,8.423,607.781,12.338,607.068,16.922z"/>
		<path style="fill:none; stroke:#F2EDED;" d="M648.568,67.69c0.465-2.937,0.201-5.537-0.791-7.805c-0.993-2.266-2.373-3.399-4.141-3.399h-13.632
			l-9.119,56.485h-20.424l10.979-67.922h47.642c3.474,0,6.234,2.345,8.281,7.032c2.047,4.533,2.621,9.735,1.722,15.608
			l-7.352,45.281h-20.471L648.568,67.69z"/>
	</g>
	<path d="M157.372,57.254"/>
</g>
<g id="&#x56FE;&#x5C42;_2">
	<g>
		<path style="fill:none; stroke:#D10913;" d="M44.341,85.719c2.684,2.297,5.39,3.734,8.12,4.311c2.9,0.648,5.208,0.173,6.929-1.432l26.019-24.24
			l8.39,8.74l-39.007,36.341c-3.499,3.259-8.198,4.326-14.099,3.2c-6.19-1.234-11.468-4.158-15.833-8.77L8.048,86.076
			c-4.411-4.643-7.002-9.918-7.772-15.824c-0.896-6.091,0.389-10.753,3.858-13.985l32.557-30.332
			c3.321-3.094,8.071-4.054,14.245-2.879c6.037,1.076,11.266,3.893,15.689,8.448l16.766,17.835L44.341,85.719z M50.033,44.956
			c-3.133-2.127-4.667-2.781-7.599-3.403c-2.989-0.564-8.529,3.877-10.22,5.451l-6.582,6.132c-0.831,0.774-1.423,1.766-1.779,2.973
			c-0.357,1.208-0.458,2.5-0.301,3.878c0.156,1.377,0.567,2.765,1.23,4.162c0.666,1.397,1.581,2.657,2.747,3.776l8.465,9.014
			l25.238-22.718L50.033,44.956z"/>
	</g>
</g>
</svg>
