<?xml version="1.0" encoding="utf-8"?>
<!-- Generator: Adobe Illustrator 16.0.0, SVG Export Plug-In . SVG Version: 6.00 Build 0)  -->
<!DOCTYPE svg PUBLIC "-//W3C//DTD SVG 1.1//EN" "http://www.w3.org/Graphics/SVG/1.1/DTD/svg11.dtd">
<svg version="1.1" id="Layer_1" xmlns="http://www.w3.org/2000/svg" xmlns:xlink="http://www.w3.org/1999/xlink" x="0px" y="0px"
	 width="240px" height="90px" viewBox="0 0 243 100" enable-background="new 0 0 243 100" xml:space="preserve">
<g id="Layer_1_1_">
	<g id="LINE_61_">
		<g id="XMLID_354_">
			<g>
				<path fill="#3C4040" d="M149.131,31.495l-0.009-0.008l8.695-17.373c0.483-0.975,1.478-1.592,2.567-1.592h7.855l-9.466,18.965
					h15.423c-5.322,5.161-12.338,8.229-19.752,8.623l-7.111,14.241c-0.074,0.143-0.008,0.322,0.115,0.393
					c0.055,0.02,0.1,0.027,0.144,0.027h15.754c1.091,0,2.074-0.617,2.577-1.592l10.33-20.665l3.953-7.917h-11.566
					c2.577-4.464,6.971-7.603,12.016-8.623l-0.859,1.726h3.865l1.789-3.587c0.491-0.976,1.475-1.592,2.575-1.592h7.864
					l-11.021,21.997c-0.071,0.144-0.008,0.313,0.135,0.385c0.044,0.017,0.08,0.027,0.125,0.027h30.414l1.719-3.444h-26.989
					l2.64-5.313c0.492-0.976,1.493-1.583,2.576-1.583h11.728l1.726-3.453h-11.566l2.656-5.313c0.484-0.975,1.468-1.584,2.568-1.584
					h9.785l0.93-1.86c0.484-0.975,1.486-1.592,2.568-1.592h7.666l0.161,0.081l-1.683,3.372h11.577l-2.665,5.306
					c-0.483,0.975-1.468,1.592-2.568,1.592h-9.787l-1.734,3.453h19.295l-2.666,5.305c-0.483,0.975-1.476,1.593-2.559,1.593h-4.017
					l-1.718,3.444h9.635l-2.657,5.313c-0.482,0.974-1.484,1.592-2.577,1.592h-7.854l-9.553,19.108
					c-0.484,0.974-1.486,1.592-2.567,1.592h-27.276c-0.16,0-0.295-0.135-0.295-0.287v-5.939c0-0.447,0.107-0.886,0.313-1.288
					l4.07-8.149c0.492-0.975,1.484-1.592,2.576-1.592h13.643c-2.425,2.862-5.519,5.081-9.018,6.457l-1.306,2.613
					c-0.072,0.143,0,0.322,0.143,0.394c0.036,0.019,0.072,0.026,0.116,0.026h11.264c1.08,0,2.084-0.617,2.566-1.592l5.671-11.343
					h-29.788c-0.646,0-1.243,0.367-1.529,0.949l-9.088,18.158c-0.483,0.975-1.485,1.593-2.577,1.593h-31.756
					c-0.151,0-0.286-0.134-0.286-0.286v-5.939c0-0.448,0.107-0.887,0.313-1.289L149.131,31.495z"/>
				<path fill="#3C4040" d="M137.555,31.487h11.566c-3.891,4.92-9.625,8.033-15.877,8.623l-10.431,20.833
					c-0.483,0.975-1.468,1.593-2.567,1.593h-7.855H69.687c-0.169,0-0.294-0.134-0.294-0.286V37.337c0-0.448,0.116-0.886,0.304-1.289
					l11.844-23.67c0.492-0.975,1.485-1.592,2.576-1.592h45.505c0.08,0,0.179,0.018,0.242,0.063c0.285,0.143,0.401,0.482,0.26,0.769
					l-14.734,29.493c-0.483,0.966-1.485,1.584-2.567,1.584H80.761c-0.957,0-1.717,0.778-1.717,1.726v10.064
					c0,0.161,0.117,0.286,0.277,0.286h35.173c1.082,0,2.084-0.617,2.568-1.592l19.536-39.065c0.483-0.975,1.486-1.592,2.568-1.592
					h7.871L137.555,31.487z M109.619,33.347l7.828-15.663h-7.863c-1.091,0-2.084,0.618-2.558,1.592L99.18,34.931h7.863
					C108.143,34.931,109.128,34.322,109.619,33.347z M90.341,33.347l7.819-15.663h-7.854c-1.091,0-2.084,0.618-2.577,1.592
					l-7.827,15.655h7.872C88.857,34.931,89.858,34.322,90.341,33.347z"/>
			</g>
		</g>
	</g>
	<g>
		<rect x="6.923" y="10.99" fill="#56AF45" width="51.106" height="51.108"/>
	</g>
	<g>
		<path fill="#FFFFFF" d="M47.81,30.236l9.019,9.022h-2.98v0.558c0,11.805-9.568,21.374-21.371,21.374
			c-11.805,0-21.374-9.568-21.374-21.374v-0.558h-2.98l9.019-9.022v9.581c0,7.215,5.031,13.455,12.08,14.984V36.042
			c-4.195-1.148-7.472-4.428-8.621-8.623c-1.796-6.56,2.065-13.331,8.621-15.125c6.561-1.798,13.333,2.061,15.129,8.621
			c1.798,6.559-2.064,13.333-8.624,15.128v18.759c7.052-1.529,12.082-7.77,12.082-14.985V30.236z M38.98,24.166
			c0-3.59-2.913-6.505-6.503-6.505c-3.592,0-6.505,2.915-6.505,6.505c0,3.593,2.912,6.505,6.505,6.505
			C36.068,30.671,38.98,27.759,38.98,24.166z"/>
	</g>
</g>
<g id="slogan">
	<g>
		<g>
			<path fill="#56AF45" d="M14.003,75.05h4.371c2.987,0,5.053,1.002,5.053,3.589c0,1.463-0.782,2.746-2.166,3.188v0.101
				c1.764,0.341,3.007,1.504,3.007,3.509c0,2.887-2.286,4.311-5.574,4.311h-4.692V75.05z M18.054,81.305
				c2.526,0,3.549-0.942,3.549-2.426c0-1.725-1.183-2.366-3.469-2.366h-2.266v4.792H18.054z M18.435,88.263
				c2.526,0,4.01-0.902,4.01-2.888c0-1.824-1.444-2.646-4.01-2.646h-2.566v5.534H18.435z"/>
			<path fill="#56AF45" d="M27.176,75.05h4.371c2.987,0,5.053,1.002,5.053,3.589c0,1.463-0.782,2.746-2.166,3.188v0.101
				c1.764,0.341,3.007,1.504,3.007,3.509c0,2.887-2.286,4.311-5.574,4.311h-4.692V75.05z M31.226,81.305
				c2.526,0,3.549-0.942,3.549-2.426c0-1.725-1.183-2.366-3.469-2.366h-2.266v4.792H31.226z M31.607,88.263
				c2.526,0,4.01-0.902,4.01-2.888c0-1.824-1.444-2.646-4.01-2.646h-2.566v5.534H31.607z"/>
			<path fill="#56AF45" d="M38.985,87.821l1.103-1.263c1.063,1.103,2.546,1.824,4.07,1.824c1.925,0,3.088-0.963,3.088-2.406
				c0-1.504-1.063-1.984-2.446-2.606l-2.125-0.922c-1.363-0.582-2.987-1.624-2.987-3.77c0-2.266,1.965-3.91,4.632-3.91
				c1.744,0,3.288,0.742,4.331,1.825l-0.982,1.183c-0.902-0.842-1.985-1.384-3.348-1.384c-1.665,0-2.747,0.842-2.747,2.166
				c0,1.423,1.283,1.965,2.426,2.445l2.105,0.902c1.704,0.742,3.028,1.744,3.028,3.93c0,2.326-1.925,4.171-4.993,4.171
				C42.053,90.007,40.268,89.165,38.985,87.821z"/>
			<path fill="#3C4040" d="M63.204,82.468c0-0.842,0.602-1.424,1.323-1.424s1.323,0.582,1.323,1.424
				c0,0.802-0.602,1.384-1.323,1.384S63.204,83.27,63.204,82.468z"/>
			<path fill="#3C4040" d="M88.326,87.18c-0.02,0.481,0.02,1.143,0.101,1.504c-5.434,1.765-6.156,2.085-6.617,2.446
				c-0.12-0.381-0.481-1.022-0.742-1.283c0.321-0.221,0.822-0.682,0.822-1.544V73.185h1.544v5.955h4.953v1.464h-4.953v8.1
				L88.326,87.18z M95.323,89.325c1.002,0,1.143-0.923,1.283-4.611c0.381,0.28,1.002,0.581,1.424,0.701
				c-0.181,3.97-0.582,5.354-2.606,5.354h-3.048c-1.925,0-2.446-0.602-2.446-2.827V73.064h1.544v7.519
				c1.885-1.163,3.83-2.687,5.033-3.909l1.243,1.283c-1.725,1.463-4.09,2.987-6.276,4.21v5.835c0,1.123,0.161,1.323,1.063,1.323
				H95.323z"/>
			<path fill="#3C4040" d="M107.072,83.711l-2.065,0.702v6.856h-1.444v-6.396c-1.083,0.36-2.105,0.682-2.967,0.942l-0.321-1.483
				c0.882-0.241,2.025-0.582,3.288-0.942v-4.893h-1.503c-0.201,1.283-0.481,2.466-0.802,3.389c-0.261-0.201-0.822-0.502-1.143-0.622
				c0.622-1.664,0.982-4.271,1.163-6.757l1.263,0.221c-0.08,0.802-0.16,1.584-0.281,2.346h1.303v-4.09h1.444v4.09h1.865v1.424
				h-1.865v4.451l1.945-0.602L107.072,83.711z M115.954,80.443v2.386h2.346v1.383h-2.346v5.233c0,0.882-0.16,1.323-0.782,1.563
				c-0.642,0.241-1.665,0.261-3.168,0.261c-0.06-0.421-0.261-1.063-0.461-1.483c1.203,0.04,2.266,0.04,2.606,0.021
				c0.301-0.021,0.401-0.081,0.401-0.381v-5.214h-7.138v-1.383h7.138v-2.386h-7.439v-1.404h5.013v-2.526h-3.89V75.13h3.89v-2.166
				h1.423v2.166h3.93v1.383h-3.93v2.526h4.853v1.404H115.954z M109.558,84.773c0.962,0.942,2.045,2.266,2.506,3.188l-1.163,0.762
				c-0.421-0.923-1.483-2.266-2.446-3.248L109.558,84.773z"/>
			<path fill="#3C4040" d="M136.424,86.919c0,0.842-0.181,1.304-0.822,1.544c-0.661,0.261-1.724,0.28-3.348,0.261
				c-0.08-0.421-0.321-1.063-0.521-1.483c1.283,0.04,2.406,0.04,2.747,0.02c0.32,0,0.421-0.08,0.421-0.381v-6.355h-4.853V91.25
				h-1.523V80.523h-4.632v8.44h-1.504v-9.885h6.136v-3.268c-2.507,0.16-5.033,0.24-7.358,0.28c-0.021-0.421-0.2-0.982-0.321-1.343
				c5.534-0.141,12.331-0.521,16.241-1.224l0.602,1.363c-2.065,0.361-4.752,0.622-7.64,0.822v3.368h6.376V86.919z"/>
			<path fill="#3C4040" d="M157.396,76.533v9.384h-1.524v-1.144h-5.754v6.496h-1.544v-6.496h-5.734v1.243h-1.464v-9.483h7.198
				v-3.569h1.544v3.569H157.396z M148.574,83.31v-5.313h-5.734v5.313H148.574z M155.872,83.31v-5.313h-5.754v5.313H155.872z"/>
			<path fill="#3C4040" d="M175.319,77.957c-1.143,3.168-2.687,5.693-4.691,7.759c2.205,1.865,4.912,3.288,8.101,4.07
				c-0.361,0.341-0.782,0.963-1.022,1.384c-3.269-0.923-5.995-2.387-8.221-4.392c-2.246,1.965-5.013,3.409-8.341,4.472
				c-0.181-0.361-0.622-1.043-0.923-1.384c3.309-0.942,5.995-2.306,8.181-4.15c-2.065-2.125-3.649-4.731-4.812-7.759h-3.088v-1.464
				h17.965v1.464H175.319z M165.134,77.957c1.043,2.546,2.486,4.832,4.371,6.717c1.785-1.805,3.128-4.011,4.131-6.717H165.134z
				 M169.385,76.453c-0.24-0.822-0.882-2.166-1.483-3.148l1.544-0.44c0.602,0.942,1.283,2.226,1.563,3.067L169.385,76.453z"/>
			<path fill="#3C4040" d="M187.068,85.154c-0.421-0.581-1.323-1.644-2.085-2.486v8.602h-1.464v-8.16
				c-0.902,0.902-1.845,1.704-2.767,2.306c-0.12-0.421-0.461-1.163-0.682-1.443c2.205-1.304,4.531-3.709,5.814-6.195h-5.273v-1.363
				h6.056l0.28-0.061l0.802,0.582c-0.602,1.483-1.483,2.947-2.506,4.23c0.802,0.762,2.326,2.325,2.767,2.767L187.068,85.154z
				 M184.603,76.293c-0.361-0.742-1.163-1.885-1.885-2.667l1.123-0.662c0.762,0.782,1.604,1.865,1.944,2.587L184.603,76.293z
				 M198.638,89.044v1.464h-11.448v-1.464h5.272v-8.381h-4.33V79.22h4.33v-6.275h1.484v6.275h4.271v1.443h-4.271v8.381H198.638z"/>
			<path fill="#3C4040" d="M218.526,89.265v1.424h-17.003V74.067h16.501v1.423h-15.037v13.774H218.526z M214.957,87.861
				c-1.003-1.243-2.546-2.867-4.291-4.511c-1.684,1.744-3.528,3.308-5.394,4.511c-0.26-0.28-0.821-0.862-1.183-1.103
				c1.945-1.163,3.85-2.687,5.534-4.411c-1.624-1.504-3.328-3.008-4.893-4.291l1.043-0.882c1.523,1.223,3.228,2.687,4.832,4.13
				c1.363-1.504,2.566-3.168,3.528-4.852l1.384,0.562c-1.103,1.864-2.406,3.629-3.85,5.253c1.784,1.644,3.408,3.248,4.471,4.531
				L214.957,87.861z"/>
		</g>
	</g>
</g>
</svg>
