<?xml version="1.0" encoding="UTF-8" standalone="no"?>
<!-- Generator: Adobe Illustrator 16.0.0, SVG Export Plug-In . SVG Version: 6.00 Build 0)  -->

<svg
   xmlns:dc="http://purl.org/dc/elements/1.1/"
   xmlns:cc="http://creativecommons.org/ns#"
   xmlns:rdf="http://www.w3.org/1999/02/22-rdf-syntax-ns#"
   xmlns:svg="http://www.w3.org/2000/svg"
   xmlns="http://www.w3.org/2000/svg"
   xmlns:sodipodi="http://sodipodi.sourceforge.net/DTD/sodipodi-0.dtd"
   xmlns:inkscape="http://www.inkscape.org/namespaces/inkscape"
   version="1.1"
   id="图层_1"
   x="0px"
   y="0px"
   viewBox="0 0 240 90"
   enable-background="new 0 0 240 90"
   xml:space="preserve"
   inkscape:version="0.91 r13725"
   sodipodi:docname="cnodejs.svg"><metadata
     id="metadata23"><rdf:RDF><cc:Work
         rdf:about=""><dc:format>image/svg+xml</dc:format><dc:type
           rdf:resource="http://purl.org/dc/dcmitype/StillImage" /></cc:Work></rdf:RDF></metadata><defs
     id="defs21" /><sodipodi:namedview
     pagecolor="#ffffff"
     bordercolor="#666666"
     borderopacity="1"
     objecttolerance="10"
     gridtolerance="10"
     guidetolerance="10"
     inkscape:pageopacity="0"
     inkscape:pageshadow="2"
     inkscape:window-width="1366"
     inkscape:window-height="705"
     id="namedview19"
     showgrid="false"
     inkscape:zoom="1.55"
     inkscape:cx="201.93548"
     inkscape:cy="19.193548"
     inkscape:window-x="-8"
     inkscape:window-y="-8"
     inkscape:window-maximized="1"
     inkscape:current-layer="图层_1" /><path
     d="m 74.097472,43.791505 c 0,-0.582067 -0.29544,-1.11688 -0.780583,-1.405228 l -12.925228,-7.70647 c -0.218729,-0.133166 -0.463892,-0.202434 -0.711646,-0.212636 l -0.133725,0 c -0.247237,0.0102 -0.491882,0.07947 -0.71372,0.212636 l -12.925747,7.70647 c -0.481515,0.288348 -0.781619,0.823161 -0.781619,1.405228 l 0.02851,20.750335 c 0,0.288885 0.144611,0.557366 0.389774,0.698586 0.239979,0.149276 0.536456,0.149276 0.775399,0 l 7.681948,-4.556116 c 0.485661,-0.299625 0.781101,-0.826385 0.781101,-1.403081 l 0,-9.695911 c 0,-0.57777 0.295958,-1.112047 0.779545,-1.399321 l 3.271089,-1.952392 c 0.243608,-0.145517 0.510021,-0.216933 0.782656,-0.216933 0.265895,0 0.539565,0.07142 0.776435,0.216933 l 3.269534,1.952392 c 0.484105,0.287274 0.780582,0.821551 0.780582,1.399321 l 0,9.695374 c 0,0.576697 0.299586,1.107214 0.782656,1.40308 l 7.679359,4.556117 c 0.241016,0.149276 0.541639,0.149276 0.780583,0 0.237907,-0.14122 0.3877,-0.409701 0.3877,-0.698587 l 0.0254,-20.749797 z"
     id="path3"
     inkscape:connector-curvature="0"
     style="clip-rule:evenodd;fill:#46483e;fill-rule:evenodd" /><path
     d="m 143.11632,15.266507 c -0.24205,-0.139611 -0.53748,-0.136389 -0.77643,0.0086 -0.23842,0.145515 -0.38511,0.410774 -0.38511,0.697512 l 0,20.550048 c 0,0.201898 -0.10418,0.38876 -0.27211,0.490246 -0.16897,0.100949 -0.37785,0.100949 -0.54734,0 l -3.23741,-1.932524 c -0.48306,-0.288348 -1.07654,-0.287812 -1.56012,5.37e-4 l -12.93042,7.73117 c -0.48358,0.288348 -0.78057,0.822624 -0.78057,1.399858 l 0,15.465024 c 0,0.57777 0.29699,1.11151 0.78006,1.400932 l 12.92989,7.736539 c 0.4841,0.289421 1.07862,0.289421 1.5622,0 l 12.93197,-7.736539 c 0.48359,-0.289422 0.78058,-0.823162 0.78058,-1.400932 l 0,-38.54953 c 0,-0.586361 -0.30632,-1.127082 -0.80079,-1.412746 l -7.6944,-4.448187 z m -1.19938,39.329197 c 0,0.14498 -0.0752,0.278683 -0.19592,0.349563 l -4.43885,2.651515 c -0.12077,0.07249 -0.27004,0.07249 -0.38977,0 l -4.4399,-2.651515 c -0.12024,-0.07142 -0.1954,-0.20512 -0.1954,-0.349563 l 0,-5.311084 c 0,-0.144443 0.0752,-0.27761 0.19489,-0.349562 l 4.43988,-2.656348 c 0.12026,-0.07249 0.26953,-0.07249 0.39081,0 l 4.43885,2.656348 c 0.12026,0.07249 0.19541,0.205656 0.19541,0.349562 l 0,5.311084 z"
     id="path5"
     inkscape:connector-curvature="0"
     style="clip-rule:evenodd;fill:#46483e;fill-rule:evenodd" /><path
     d="m 189.37751,49.146084 c 0.48101,-0.289423 0.77696,-0.822088 0.77696,-1.398248 l 0,-3.747453 c 0,-0.576159 -0.29595,-1.109362 -0.77747,-1.398785 l -12.84748,-7.727947 c -0.48411,-0.291034 -1.08017,-0.29157 -1.56531,-0.0022 l -12.92575,7.730633 c -0.48359,0.289422 -0.78058,0.823162 -0.78058,1.400932 l 0,15.460728 c 0,0.58153 0.30062,1.117417 0.78835,1.404691 l 12.84542,7.582969 c 0.47374,0.280294 1.05425,0.282978 1.5311,0.0097 l 7.76902,-4.473962 c 0.24724,-0.142832 0.40015,-0.410776 0.40118,-0.702345 0.002,-0.291571 -0.14772,-0.561663 -0.39133,-0.706105 l -13.0066,-7.735466 c -0.24361,-0.143904 -0.39288,-0.411849 -0.39288,-0.701271 l 0,-4.845539 c 0,-0.288885 0.14875,-0.556292 0.39133,-0.700197 l 4.04856,-2.418475 c 0.24049,-0.143906 0.53852,-0.143906 0.77902,0 l 4.05064,2.418475 c 0.24205,0.143905 0.39081,0.411312 0.39081,0.700197 l 0,3.812962 c 0,0.288886 0.14927,0.556292 0.39133,0.701272 0.24205,0.144443 0.54008,0.143369 0.78161,-0.0016 l 7.74207,-4.662972 z"
     id="path7"
     inkscape:connector-curvature="0"
     style="clip-rule:evenodd;fill:#46483e;fill-rule:evenodd" /><path
     d="m 97.609807,34.789885 c 0.48307,-0.288886 1.078094,-0.288886 1.561169,0 l 12.928334,7.729558 c 0.4841,0.288348 0.78161,0.822626 0.78161,1.400932 l 0,15.470395 c 0,0.578306 -0.29751,1.112046 -0.78058,1.401468 l -12.928853,7.734928 c -0.483586,0.288886 -1.07861,0.288886 -1.562198,0 L 84.683542,60.792238 C 84.200473,60.502816 83.90296,59.969076 83.90296,59.39077 l 0,-15.470931 c 0,-0.57777 0.297513,-1.112048 0.781101,-1.400396 l 12.925746,-7.729558 z"
     id="path9"
     inkscape:connector-curvature="0"
     style="clip-rule:evenodd;fill:#80bd01;fill-rule:evenodd" /><path
     d="m 214.48108,68.748395 c -0.44523,0 -0.88943,-0.120816 -1.2792,-0.354395 l -4.07034,-2.494722 c -0.60746,-0.352246 -0.3115,-0.476821 -0.1104,-0.549311 0.81013,-0.29157 0.97496,-0.358691 1.84055,-0.866656 0.0897,-0.05316 0.2094,-0.0333 0.30269,0.02416 l 3.127,1.923395 c 0.11351,0.06497 0.27263,0.06497 0.37733,0 l 12.19182,-7.290324 c 0.11351,-0.06712 0.18555,-0.201897 0.18555,-0.341507 l 0,-14.57689 c 0,-0.142295 -0.0726,-0.275461 -0.18867,-0.347414 L 214.67027,36.59085 c -0.11248,-0.06819 -0.26227,-0.06819 -0.37527,0 l -12.18248,7.285492 c -0.11869,0.07034 -0.19333,0.207267 -0.19333,0.345803 l 0,14.576353 c 0,0.13961 0.0747,0.271702 0.1923,0.337749 l 3.33898,1.99857 c 1.81204,0.938609 2.92226,-0.166459 2.92226,-1.277431 l 0,-14.390565 c 0,-0.203508 0.15809,-0.36406 0.35401,-0.36406 l 1.54614,0 c 0.19333,0 0.35349,0.160552 0.35349,0.36406 l 0,14.390565 c 0,2.505461 -1.31704,3.94237 -3.61007,3.94237 -0.7049,0 -1.25951,0 -2.80823,-0.790407 l -3.19697,-1.90675 c -0.78991,-0.4736 -1.27868,-1.357438 -1.27868,-2.304101 l 0,-14.576353 c 0,-0.946663 0.48825,-1.831039 1.27868,-2.301953 l 12.1913,-7.29838 c 0.77177,-0.451583 1.79751,-0.451583 2.56255,0 l 12.19026,7.29838 c 0.7899,0.4736 1.28127,1.35529 1.28127,2.301953 l 0,14.576353 c 0,0.946663 -0.49085,1.82728 -1.28127,2.304101 l -12.19026,7.291398 c -0.38978,0.233579 -0.83293,0.354395 -1.28387,0.354395"
     id="path11"
     inkscape:connector-curvature="0"
     style="fill:#80bd01" /><path
     d="m 218.24715,58.70668 c -5.33553,0 -6.45249,-2.537142 -6.45249,-4.664583 0,-0.202434 0.15704,-0.36406 0.35245,-0.36406 l 1.57619,0 c 0.17571,0 0.32291,0.130482 0.34986,0.308754 0.23791,1.662968 0.94749,2.501166 4.17451,2.501166 2.56774,0 3.66139,-0.601934 3.66139,-2.013606 0,-0.813497 -0.30996,-1.417578 -4.3015,-1.822447 -3.3364,-0.342581 -5.39878,-1.10614 -5.39878,-3.870417 0,-2.547882 2.07326,-4.068019 5.54961,-4.068019 3.9055,0 5.83778,1.404153 6.08295,4.417581 0.01,0.103633 -0.027,0.203508 -0.0939,0.28083 -0.0669,0.07249 -0.15964,0.116521 -0.25812,0.116521 l -1.5819,0 c -0.16431,0 -0.30891,-0.120816 -0.34261,-0.285126 -0.37889,-1.74942 -1.30253,-2.308397 -3.80702,-2.308397 -2.80409,0 -3.13011,1.012171 -3.13011,1.770362 0,0.91874 0.38459,1.186147 4.17089,1.705389 3.7469,0.512797 5.52628,1.239843 5.52628,3.968144 0,2.751927 -2.21529,4.327908 -6.07777,4.327908"
     id="path13"
     inkscape:connector-curvature="0"
     style="fill:#80bd01" /><path
     d="m 175.55664,48.422259 c 0.0928,-0.05584 0.20629,-0.05584 0.29907,0 l 2.48118,1.483088 c 0.0933,0.05531 0.14978,0.157867 0.14978,0.26848 l 0,2.967786 c 0,0.111151 -0.0565,0.213173 -0.14978,0.269018 l -2.48118,1.483623 c -0.0928,0.05531 -0.20629,0.05531 -0.29907,0 l -2.4791,-1.483623 c -0.0933,-0.05584 -0.1498,-0.157867 -0.1498,-0.269018 l 0,-2.967786 c 0,-0.110613 0.0565,-0.213173 0.1498,-0.26848 l 2.4791,-1.483088 z"
     id="path15"
     inkscape:connector-curvature="0"
     style="clip-rule:evenodd;fill:#80bd01;fill-rule:evenodd" /><path
     d="m 26.564335,48.557574 c 0.56911,0.349025 0.703871,0.136925 0.902905,0.01879 0.199551,-0.118668 7.616643,-4.516383 8.088828,-4.755867 0.472703,-0.239485 0.681584,-1.028281 0.05909,-1.401469 -0.622501,-0.374258 -13.170395,-7.904605 -12.564484,-7.581891 0.652558,0.346877 -0.623015,-0.445141 -1.361096,-0.09397 -0.7386,0.351173 -12.0409825,7.083595 -12.8422979,7.557731 -0.8007971,0.474137 -1.0532166,0.92948 -1.050625,1.560946 0.00207,0.631468 -0.040429,14.633809 0,15.465025 0.040429,0.831216 0.3576375,1.101844 0.7805827,1.400932 0.4229453,0.299625 11.8699382,7.251663 12.7360432,7.737614 0.866105,0.487024 1.434697,0.320565 1.997068,-0.02148 0.562372,-0.343118 11.779751,-6.982108 12.228612,-7.277974 0.448862,-0.295866 0.856776,-1.057277 -0.08138,-1.606589 -0.938669,-0.548774 -7.660181,-4.667805 -7.919339,-4.802045 -0.259158,-0.134241 -0.412579,-0.136925 -0.787839,0.08108 -0.37526,0.219081 -3.743273,2.181138 -4.15326,2.429213 -0.409988,0.248076 -0.468557,0.136389 -0.664999,0.01772 -0.195923,-0.119205 -3.672263,-2.220335 -4.073439,-2.45445 -0.401176,-0.234115 -0.448861,-0.352247 -0.449898,-0.671202 -5.18e-4,-0.318418 -0.0093,-4.360663 0.01192,-4.831578 0.02074,-0.470915 0.08552,-0.576696 0.498619,-0.831216 0.413097,-0.25452 3.470121,-2.136033 3.714247,-2.305175 0.243608,-0.169143 0.756222,-0.185252 1.156361,0.05799 0.40014,0.242707 3.205261,1.958299 3.774372,2.30786"
     id="path17"
     inkscape:connector-curvature="0"
     style="clip-rule:evenodd;fill:#46483e;fill-rule:evenodd" /></svg>