<?xml version="1.0" standalone="no"?><!DOCTYPE svg PUBLIC "-//W3C//DTD SVG 1.1//EN" "http://www.w3.org/Graphics/SVG/1.1/DTD/svg11.dtd" ><svg xmlns="http://www.w3.org/2000/svg"><metadata></metadata><defs><font id="FontEditor 1.0 : fonteditor" horiz-adv-x="1053"><font-face font-family="fonteditor" font-weight="400" font-stretch="normal" units-per-em="1024" panose-1="2 0 6 3 0 0 0 0 0 0" ascent="812" descent="-212" x-height="0" bbox="91 -115 939 764" underline-thickness="0" underline-position="50" unicode-range="U+e001-f051" /><missing-glyph horiz-adv-x="1045" d="M916 512 q22 23 23 57 q-1 35 -24 59 q-24 23 -59 24 q-29 0 -50 -17 l-10 -7 q-12 -10 -23 -21 l-49 -49 q-28 -29 -59 -62 l-183 -192 q-26 -27 -44 -45 q-19 -19 -40 -22 q-22 -4 -39 12 l-80 83 l-11 11 q-13 15 -31 24 q-18 8 -39 8 q-39 -1 -65 -27 q-26 -26 -27 -65 q1 -35 23 -61 l12 -12 q2 -1 2 -3 l39 -41 q21 -23 46 -49 q25 -26 51 -50 q25 -24 47 -44 q11 -10 27 -14 q16 -4 32 -4 q16 0 32 6 q15 6 25 15 q25 24 61 61 l79 81 q42 44 88 90 q46 46 88 91 q42 44 80 82 l63 63 l15 15 l0 3 Z" /><glyph glyph-name="uniF00D" unicode="&#xf00d;" d="M804 154 q12 -12 18 -27 q6 -15 6 -30 q0 -16 -6 -31 q-6 -16 -18 -28 q-12 -12 -27 -18 q-15 -6 -30 -6 q-15 0 -30 6 q-16 6 -28 18 l-174 174 l-172 -173 q-12 -12 -27 -18 q-15 -6 -30 -6 q-15 0 -31 6 q-16 6 -27 18 q-12 12 -18 27 q-6 15 -6 30 q0 15 6 30 q6 15 18 27 l173 173 l-174 174 q-12 12 -18 27 q-6 15 -6 30 q0 15 6 30 q6 15 18 27 q12 12 27 18 q15 6 31 6 q15 0 30 -6 q15 -6 27 -18 l173 -173 l173 174 q12 12 27 18 q15 6 31 6 q15 0 30 -6 q15 -6 27 -18 q24 -24 24 -58 q0 -34 -24 -58 l-172 -172 l173 -173 Z" /><glyph glyph-name="uniF00E" unicode="&#xf00e;" d="M856 474 l-86 -41 q4 -9 8 -17 q21 -54 20 -109 q-1 -56 -24 -109 q-23 -53 -63 -92 q-40 -39 -94 -60 q-54 -21 -109 -20 q-56 1 -109 24 q-53 23 -92 63 q-39 40 -60 94 q-21 54 -20 110 q1 55 24 108 q23 52 63 91 q39 38 91 60 l43 -79 l163 230 l-288 0 l39 -72 q-66 -27 -116 -75 q-51 -48 -82 -118 q-61 -150 -5 -291 q56 -141 203 -209 q150 -61 291 -5 q141 56 209 203 q33 79 31 160 q-2 81 -37 154 Z" /><glyph glyph-name="uniF010" unicode="&#xf010;" d="M517 764 q-146 -4 -243 -101 q-97 -97 -101 -243 q1 -74 29 -138 q28 -64 78 -111 l18 -15 q15 -13 24 -19 q55 -52 105 -132 q50 -81 53 -89 q5 -10 14 -16 q9 -7 21 -7 q12 0 22 7 q10 7 14 18 q52 83 95 137 q43 53 71 81 q34 34 37 36 q50 48 79 112 q28 63 29 138 q-4 145 -101 242 q-98 96 -244 100 ZM517 296 q-52 1 -87 36 q-35 35 -36 87 q1 52 36 87 q35 35 87 36 q52 -1 87 -36 q35 -35 36 -87 q-1 -52 -36 -87 q-35 -35 -87 -36 Z" /><glyph glyph-name="uniF011" unicode="&#xf011;" d="M858 -13 l0 530 q-1 13 -9 22 q-9 8 -22 8 q-13 0 -22 -8 q-9 -9 -9 -23 l0 -494 l-63 0 l0 610 q-1 35 -21 54 q-21 19 -52 19 l-417 0 q-31 -1 -51 -21 q-20 -21 -21 -52 l0 -604 q1 -31 21 -51 q20 -21 51 -23 l366 0 l217 1 q14 0 24 10 q9 9 8 22 ZM579 143 l-255 0 q-13 0 -21 9 q-9 8 -9 21 q0 13 9 22 q8 8 21 8 l255 0 q13 0 22 -8 q8 -9 8 -21 q0 -13 -8 -22 q-9 -9 -22 -9 ZM579 253 l-255 0 q-13 0 -21 9 q-9 8 -9 21 q0 13 9 20 q8 7 21 7 l255 0 q13 0 22 -7 q8 -7 8 -20 q0 -13 -8 -21 q-9 -9 -22 -9 ZM579 352 l-255 0 q-13 0 -21 9 q-9 8 -9 21 q0 13 9 20 q8 7 21 7 l255 0 q13 0 22 -7 q8 -7 8 -20 q0 -13 -8 -21 q-9 -9 -22 -9 ZM579 457 l-255 0 q-13 0 -21 9 q-9 8 -9 21 q0 13 9 22 q8 8 21 8 l255 0 q13 0 22 -8 q8 -9 8 -22 q0 -13 -8 -21 q-9 -9 -22 -9 Z" /><glyph glyph-name="uniF012" unicode="&#xf012;" d="M816 402 q15 0 29 -6 q14 -6 24 -16 q10 -10 16 -24 q6 -14 6 -29 q0 -16 -6 -29 q-6 -14 -16 -24 q-10 -11 -24 -17 q-14 -6 -29 -6 l-224 1 l0 -225 q0 -16 -6 -29 q-6 -14 -16 -24 q-10 -11 -24 -17 q-14 -6 -29 -6 q-16 0 -29 6 q-14 6 -24 17 q-11 10 -17 24 q-6 13 -6 29 l0 225 l-225 0 q-16 0 -29 6 q-14 6 -24 17 q-11 10 -17 24 q-6 13 -6 29 q0 15 6 29 q6 14 17 24 q10 10 24 16 q13 6 29 6 l225 -1 l0 225 q0 15 6 29 q6 14 17 24 q10 10 24 16 q13 6 29 6 q32 0 54 -22 q21 -22 21 -53 l0 -225 l224 0 Z" /><glyph glyph-name="uniF013" unicode="&#xf013;" d="M881 498 q-19 18 -43 18 q-24 0 -43 -17 l-277 -277 l-276 277 l-1 1 q-19 17 -43 17 q-25 0 -43 -18 q-18 -19 -18 -43 q0 -24 17 -43 l316 -316 l4 -5 q19 -18 43 -18 q24 0 43 17 l321 321 q18 19 18 43 q0 24 -18 43 Z" /><glyph glyph-name="uniF014" unicode="&#xf014;" d="M845 43 q-5 30 -25 46 q-11 8 -25 17 q-14 8 -22 11 l-49 22 q-43 20 -59 30 l-33 19 q-23 14 -28 22 q-5 8 -3 35 q1 26 8 41 l11 19 q3 6 9 19 l10 21 q4 5 16 27 q11 22 12 58 q0 4 -3 9 l-6 8 l0 67 q-2 72 -42 120 q-41 48 -103 50 q-62 -2 -102 -50 q-41 -48 -43 -120 l0 -67 l-6 -8 q-3 -4 -3 -9 q1 -36 13 -58 q11 -23 15 -27 l10 -21 q6 -13 9 -19 q5 -7 11 -19 q8 -15 9 -41 q1 -27 -4 -35 q-5 -8 -27 -21 l-34 -20 q-16 -9 -59 -29 l-49 -23 q-8 -3 -22 -11 q-14 -9 -25 -17 q-20 -15 -25 -46 l0 -88 l664 0 l0 88 Z" /><glyph glyph-name="uniF01A" unicode="&#xf01a;" d="M492 656 q-7 7 -17 12 q-11 5 -23 5 l-238 -2 q-25 2 -45 -17 q-10 -10 -14 -19 q-4 -10 -5 -22 l-9 -242 q-1 -22 15 -40 l398 -413 q17 -17 40 -16 q22 0 40 17 l251 243 l1 1 q17 17 18 40 q1 23 -15 40 l1 3 l-398 410 ZM817 225 q7 -7 7 -18 q-1 -12 -8 -22 l-1 -1 l-196 -190 q-20 -19 -41 0 l-361 374 q-4 4 -5 10 q-2 6 -1 11 l5 188 q0 6 2 12 q2 6 6 10 q4 4 10 6 q6 1 11 1 l188 0 q5 0 11 -1 q6 -2 10 -6 l361 -373 q3 -1 2 -1 ZM304 471 q0 -18 13 -30 q12 -13 31 -13 q19 0 32 13 q12 12 12 31 q0 18 -12 31 q-13 12 -32 12 q-19 0 -31 -12 q-13 -13 -13 -32 Z" /><glyph glyph-name="uniF01C" unicode="&#xf01c;" d="M514 731 q-179 -4 -298 -123 q-120 -120 -125 -300 q5 -179 124 -298 q119 -120 299 -125 q179 5 299 124 q119 119 124 299 q-5 180 -124 300 q-120 119 -299 123 ZM514 -38 q-147 4 -244 102 q-98 97 -102 244 q4 147 102 245 q97 97 244 101 q147 -4 245 -101 q97 -98 101 -245 q-4 -147 -101 -244 q-98 -98 -245 -102 ZM648 311 q15 0 26 11 q10 10 10 25 q0 15 -10 26 q-11 10 -26 10 l-43 0 l38 117 l0 2 q4 15 -3 27 q-7 12 -21 17 q-15 4 -27 -2 q-12 -6 -18 -21 l-45 -139 l-33 -1 l-45 140 q-6 14 -18 20 q-13 6 -27 2 q-14 -5 -21 -17 q-7 -12 -3 -28 l38 -117 l-44 0 q-15 -1 -25 -11 q-10 -10 -10 -25 q0 -15 10 -25 q10 -10 25 -11 l91 0 l0 -55 l-91 0 q-15 -1 -25 -11 q-10 -10 -10 -25 q0 -15 10 -25 q10 -10 25 -11 l91 0 l0 -82 q0 -19 13 -32 q13 -13 32 -13 q19 0 32 13 q13 13 13 32 l1 2 l0 80 l90 0 q15 0 26 11 q10 10 10 25 q0 15 -10 26 q-11 10 -26 10 l-90 0 l0 55 l90 0 Z" /><glyph glyph-name="uniF01D" unicode="&#xf01d;" d="M568 272 q-15 11 -50 21 l0 -154 q49 3 67 37 q10 18 10 41 q0 37 -27 55 ZM502 711 q-170 -4 -283 -117 q-113 -113 -117 -283 q4 -170 117 -283 q113 -113 283 -117 q170 4 283 117 q113 113 117 283 q-4 170 -117 283 q-113 113 -283 117 ZM597 120 q-27 -18 -79 -24 l0 -35 q0 -7 -4 -11 q-5 -5 -12 -5 q-7 0 -11 5 q-5 4 -5 11 l0 35 q-84 6 -114 60 q-17 30 -17 81 q0 11 8 19 q7 7 18 7 q11 0 19 -7 q7 -8 7 -19 q3 -39 13 -58 q18 -33 66 -37 l0 159 q-62 12 -92 41 q-30 28 -30 77 q0 45 33 81 q32 35 90 35 l-1 27 q0 7 5 12 q4 4 11 4 q7 0 12 -4 q4 -5 4 -12 l0 -26 q57 -4 88 -33 q30 -30 33 -77 l0 -3 q0 -11 -7 -18 q-8 -8 -19 -8 q-11 0 -18 7 q-8 7 -8 18 q-1 23 -12 38 q-18 29 -57 31 l0 -143 q67 -19 91 -35 q40 -27 40 -82 q-1 -78 -52 -111 ZM433 468 q-16 -22 -16 -46 q0 -29 19 -45 q19 -17 50 -24 l0 139 q-37 -2 -53 -24 Z" /><glyph glyph-name="uniF01E" unicode="&#xf01e;" d="M383 202 l-83 -48 q36 -50 93 -79 q57 -29 124 -30 q83 1 148 45 q64 43 95 114 l100 -68 q-49 -95 -139 -152 q-90 -58 -204 -59 q-101 1 -183 47 q-83 45 -136 122 l-79 -46 l0 304 l264 -150 ZM733 465 q-37 52 -93 82 q-56 29 -123 30 q-80 -1 -143 -41 q-63 -41 -96 -109 l-105 57 q49 96 140 154 q90 57 204 58 q101 -1 184 -47 q83 -46 136 -125 l81 46 l-2 -304 l-263 154 l80 45 Z" /><glyph glyph-name="uniF01F" unicode="&#xf01f;" d="M471 581 q-3 12 -40 36 q-38 23 -131 21 q-6 2 -72 -12 q-66 -15 -124 -65 q-3 -3 -3 -6 l0 -558 q0 -5 4 -9 q4 -4 9 -4 q3 0 6 1 q30 14 84 31 q53 17 107 17 q3 1 47 -6 q44 -8 93 -36 q4 -2 8 -2 q4 0 8 4 q4 4 4 9 l1 574 l0 4 l-1 1 ZM901 -4 l0 558 q0 4 -3 6 q-58 50 -124 65 q-66 14 -72 12 q-93 2 -130 -21 q-38 -24 -41 -36 q-1 -2 -1 -4 l1 -574 q0 -5 4 -9 q4 -4 9 -4 q4 0 7 2 q49 28 93 36 q44 7 47 6 q54 0 108 -17 q53 -17 85 -31 q1 -1 5 -1 q4 0 8 4 q4 4 4 8 Z" /><glyph glyph-name="uniF020" unicode="&#xf020;" d="M874 648 l-745 0 q-12 0 -19 -7 q-8 -8 -8 -20 l0 -623 q0 -12 8 -19 q7 -8 19 -8 l745 0 q12 0 20 8 q7 7 7 19 l0 623 q0 12 -7 20 q-8 7 -20 7 ZM225 94 l-62 0 l0 62 l62 0 l0 -62 ZM225 218 l-62 0 l0 61 l62 0 l0 -61 ZM225 341 l-62 0 l0 61 l62 0 l0 -61 ZM225 464 l-62 0 l0 61 l62 0 l0 -61 ZM401 125 l0 369 l246 -185 l-246 -184 ZM840 94 l-62 0 l0 62 l62 0 l0 -62 ZM840 218 l-62 0 l0 61 l62 0 l0 -61 ZM840 341 l-62 0 l0 61 l62 0 l0 -61 ZM840 464 l-62 0 l0 61 l62 0 l0 -61 Z" /><glyph glyph-name="uniF021" unicode="&#xf021;" d="M501 711 q-170 -4 -283 -117 q-113 -113 -117 -283 q4 -170 117 -283 q113 -113 283 -117 q170 4 283 117 q113 113 117 283 q-4 170 -117 283 q-113 113 -283 117 ZM709 430 l-124 -124 l122 -122 q17 -17 17 -42 q-1 -25 -18 -42 q-17 -17 -42 -18 q-27 1 -44 20 l-119 119 l-120 -120 q-17 -19 -43 -19 q-26 0 -43 17 q-17 17 -17 42 q0 25 16 42 l122 123 l-124 124 q-16 17 -16 42 q0 24 17 41 q17 17 42 18 q25 0 41 -17 l124 -124 l124 124 q17 16 42 16 q24 0 41 -17 q17 -17 18 -42 q0 -25 -16 -41 Z" /><glyph glyph-name="uniF022" unicode="&#xf022;" d="M501 710 q-170 -4 -283 -117 q-113 -113 -117 -283 q4 -170 117 -283 q113 -113 283 -117 q170 4 283 117 q113 113 117 283 q-4 170 -117 283 q-113 113 -283 117 ZM501 553 q22 -1 36 -15 q14 -14 14 -36 q0 -22 -14 -36 q-14 -14 -36 -14 q-22 0 -36 14 q-14 14 -14 36 q-1 22 14 36 q14 14 36 15 ZM552 119 q-1 -22 -15 -36 q-15 -15 -37 -15 q-22 0 -36 15 q-15 14 -16 36 l1 235 q1 22 16 36 q14 14 36 14 q22 0 37 -14 q14 -14 14 -36 l0 -235 Z" /><glyph glyph-name="uniF023" unicode="&#xf023;" d="M902 535 q0 12 -7 20 q-8 7 -20 7 l-748 0 q-12 0 -19 -7 q-8 -8 -8 -20 l0 -447 q0 -12 8 -19 q7 -8 19 -8 l748 0 q12 0 20 8 q7 7 7 19 l0 447 ZM378 203 l-29 0 l0 101 l-112 0 l0 -101 l-29 0 l0 216 l29 0 l0 -89 l112 0 l0 89 l29 0 l0 -216 ZM594 229 q-29 -31 -76 -31 q-47 0 -76 31 q-29 31 -29 82 q0 51 29 82 q29 31 76 31 q47 0 76 -31 q29 -31 29 -82 q0 -51 -29 -82 ZM813 393 l-72 0 l0 -190 l-30 0 l0 190 l-72 0 l0 26 l174 0 l0 -26 ZM518 399 q-33 0 -54 -24 q-21 -24 -21 -63 q0 -40 21 -64 q21 -24 55 -24 q33 0 54 24 q20 24 20 63 q0 39 -21 64 q-21 24 -54 24 Z" /><glyph glyph-name="uniF024" unicode="&#xf024;" d="M500 687 q-159 -4 -265 -110 q-106 -106 -110 -265 q4 -159 110 -265 q106 -106 265 -110 q159 4 265 110 q106 106 110 265 q-4 159 -110 265 q-106 106 -265 110 ZM545 266 l0 -229 l-90 0 l0 229 l-230 0 l0 91 l230 0 l0 230 l90 0 l0 -230 l230 0 l0 -91 l-230 0 Z" /><glyph glyph-name="uniF025" unicode="&#xf025;" d="M779 401 l-4 1 l-14 33 l2 3 q30 69 35 87 q4 17 -3 18 l-56 55 q-3 4 -10 4 q0 1 -18 -5 q-18 -6 -78 -33 l-3 -1 l-34 14 l-1 3 q-28 70 -37 85 q-10 15 -16 12 l-80 1 q-6 3 -15 -12 q-9 -15 -35 -85 l-1 -4 l-34 -14 l-3 1 q-84 36 -98 36 q-6 0 -10 -4 l-57 -54 q-7 -2 -2 -19 q4 -17 36 -85 l2 -3 l-14 -33 l-3 -1 q-71 -27 -86 -36 q-16 -10 -13 -16 l-1 -79 q-3 -6 13 -15 q15 -9 86 -35 l4 -1 l14 -33 l-1 -3 q-30 -69 -34 -86 q-5 -17 2 -19 l56 -55 q4 -3 10 -4 q0 -1 18 5 q18 6 78 33 l3 2 l34 -15 l1 -3 q28 -70 38 -85 q9 -15 15 -12 l79 -1 q6 -3 15 12 q9 15 35 85 l1 4 l34 14 l3 -1 q84 -36 98 -36 q6 1 10 4 l56 55 q7 2 3 19 q-5 17 -37 85 l-2 4 l14 33 l3 1 q71 27 87 37 q15 9 12 15 l2 77 q3 6 -12 15 q-16 9 -87 35 ZM503 132 q-76 2 -126 53 q-51 50 -53 126 q2 76 53 127 q50 50 126 52 q76 -2 127 -52 q50 -51 52 -127 q-3 -76 -53 -126 q-50 -51 -126 -53 Z" /><glyph glyph-name="uniF026" unicode="&#xf026;" d="M901 204 q-1 25 -17 41 q-16 16 -41 16 q-25 0 -41 -16 q-16 -16 -17 -41 l0 -177 l-568 0 l0 107 l142 121 l93 -110 q4 -5 10 -5 q6 0 9 4 l78 66 l199 176 l43 -47 q4 -5 10 -5 q10 1 12 11 l31 181 l0 3 q0 5 -4 9 q-4 4 -9 4 l-190 -5 q-5 0 -9 -4 q-4 -4 -4 -9 q0 -5 3 -8 l42 -46 l-199 -172 l-93 110 q-3 5 -9 5 q-7 0 -10 -4 l-145 -123 l0 309 l303 0 q25 1 41 17 q16 16 16 41 q0 25 -16 41 q-16 16 -41 17 l-361 0 q-25 -1 -41 -17 q-16 -16 -17 -41 l0 -684 q1 -25 17 -41 q16 -16 41 -17 l684 0 q25 1 41 17 q16 16 17 41 l0 235 Z" /><glyph glyph-name="uniF027" unicode="&#xf027;" d="M513 705 q-159 -4 -265 -110 q-106 -106 -110 -265 q4 -159 110 -265 q106 -106 265 -110 q159 4 265 110 q106 106 110 265 q-4 159 -109 265 q-106 106 -266 110 ZM513 23 q-131 3 -217 90 q-87 86 -90 217 q3 131 90 218 q86 86 217 89 q131 -3 218 -89 q86 -87 89 -218 q-3 -131 -89 -217 q-87 -87 -218 -90 ZM681 454 q-15 -1 -25 -9 l-205 -178 l-80 91 q-11 12 -27 12 q-17 0 -28 -11 q-12 -11 -12 -28 q0 -14 9 -25 l105 -119 q11 -14 30 -14 q15 1 26 10 l231 202 q14 11 15 31 q0 16 -11 27 q-11 11 -28 11 Z" /><glyph glyph-name="uniF028" unicode="&#xf028;" d="M500 685 q-159 -4 -265 -110 q-106 -106 -110 -265 q4 -159 110 -265 q106 -106 265 -110 q159 4 265 110 q106 106 110 265 q-4 159 -109 265 q-106 106 -266 110 ZM500 3 q-131 3 -217 90 q-87 86 -90 217 q3 131 90 218 q86 86 217 89 q131 -3 218 -89 q86 -87 89 -218 q-3 -130 -89 -217 q-87 -87 -218 -90 ZM501 184 q-18 0 -29 -11 q-12 -12 -12 -30 q0 -18 12 -29 q11 -12 29 -12 q18 0 30 12 q11 11 11 29 q0 18 -12 30 q-12 11 -29 11 ZM500 207 q18 0 30 11 q11 11 11 26 l0 237 q0 16 -11 27 q-12 10 -30 10 q-18 0 -29 -11 q-12 -11 -12 -26 l0 -236 q1 -16 13 -27 q11 -11 28 -11 Z" /><glyph glyph-name="uniF02C" unicode="&#xf02c;" d="M516 336 l2 -2 q8 -9 8 -23 q0 -15 -10 -26 l-182 -221 q-14 -17 -15 -40 q1 -26 18 -43 q17 -17 43 -18 q31 1 48 24 l248 302 q8 10 9 23 q0 12 -8 21 l-248 303 q-8 11 -21 18 q-13 6 -27 6 q-26 -1 -43 -18 q-17 -17 -18 -43 q1 -23 15 -40 l181 -223 Z" /><glyph glyph-name="uniF02D" unicode="&#xf02d;" d="M498 325 l1 1 q9 8 24 8 q14 0 25 -10 l221 -181 q17 -14 40 -15 q26 1 43 18 q17 17 18 43 q-1 31 -24 48 l-301 248 q-9 8 -21 9 q-13 0 -23 -8 l-303 -248 q-11 -8 -17 -21 q-7 -13 -7 -27 q1 -26 18 -43 q17 -17 43 -18 q23 1 40 15 l223 181 Z" /><glyph glyph-name="uniF02E" unicode="&#xf02e;" d="M499 686 q-159 -4 -265 -110 q-106 -106 -110 -265 q4 -159 110 -265 q106 -106 265 -110 q159 4 265 110 q106 106 110 265 q-4 159 -109 265 q-106 106 -266 110 ZM499 4 q-131 3 -217 90 q-87 86 -90 217 q3 131 90 218 q86 86 217 89 q131 -3 218 -89 q86 -87 89 -218 q-3 -131 -89 -217 q-87 -87 -218 -90 ZM321 409 q1 -24 17 -39 q15 -16 39 -16 q23 0 39 16 q15 15 15 39 q0 24 -15 40 q-16 15 -39 15 q-24 0 -39 -15 q-16 -16 -17 -40 ZM569 409 q1 -24 17 -39 q15 -16 39 -16 q24 0 40 16 q15 15 15 39 q0 24 -15 40 q-16 15 -40 15 q-24 0 -39 -15 q-16 -16 -17 -40 ZM685 159 q-26 52 -74 83 q-48 31 -109 31 q-61 0 -109 -31 q-48 -31 -74 -83 q-2 -4 -2 -9 q0 -9 6 -15 q6 -6 15 -6 q13 1 19 12 q20 41 58 66 q38 24 87 24 q49 0 87 -24 q38 -25 58 -66 q6 -12 19 -13 q9 0 15 6 q6 6 6 15 q0 6 -2 10 Z" /><glyph glyph-name="uniF031" unicode="&#xf031;" d="M898 428 l-118 -121 l0 -244 q0 -11 -7 -18 q-8 -8 -19 -8 l-481 0 q-11 0 -18 8 q-8 7 -8 18 l0 421 q0 11 8 19 q7 7 18 7 l197 0 l121 118 l-410 0 q-22 -1 -36 -15 q-15 -14 -16 -36 l0 -607 q1 -22 16 -36 q14 -14 36 -15 l665 0 q22 1 37 16 q14 14 15 36 l0 457 ZM900 599 q-1 8 -4 13 q-9 19 -25 37 q-16 18 -30 25 q-6 3 -15 6 q-9 3 -18 3 q-9 0 -19 -3 q-10 -3 -17 -9 q-8 -7 -19 -17 l-18 -17 l119 -119 q4 5 9 9 q5 4 12 10 l14 13 q7 7 10 16 q3 9 4 17 q0 8 -3 16 ZM418 319 q-13 -15 -18 -18 q-9 -9 -13 -16 q-5 -7 -10 -16 q-3 -6 -7 -20 q-4 -15 -14 -64 l-11 -55 l56 10 q49 9 65 15 q16 5 25 10 q9 4 17 10 q8 6 15 12 q3 2 16 15 l268 268 l-119 120 l-132 -132 q-115 -115 -138 -139 Z" /><glyph glyph-name="uniF032" unicode="&#xf032;" d="M921 82 l0 51 l-330 296 l1 194 q-1 36 -23 60 q-22 24 -55 24 q-34 0 -56 -24 q-23 -24 -24 -60 l1 -193 l-330 -296 l0 -52 l330 105 l0 -174 l-156 -122 l468 0 l-155 122 l0 174 l329 -105 Z" /><glyph glyph-name="uniF036" unicode="&#xf036;" d="M590 689 l-153 0 q-8 0 -13 -5 q-5 -6 -5 -13 l-1 -152 q0 -8 6 -13 q5 -5 12 -5 l154 0 q8 0 13 6 q5 5 5 12 l0 151 q0 8 -5 14 q-5 5 -13 5 ZM590 392 l-153 0 q-8 0 -13 -5 q-5 -6 -5 -13 l-1 -150 q0 -8 6 -13 q5 -5 12 -5 l154 -1 q8 0 13 6 q5 5 5 12 l0 151 q0 8 -5 13 q-5 5 -13 5 ZM590 97 l-153 0 q-8 0 -13 -5 q-5 -6 -5 -13 l-1 -150 q0 -8 6 -13 q5 -5 12 -5 l154 -1 q8 0 13 6 q5 5 5 12 l0 151 q0 8 -5 13 q-5 5 -13 5 Z" /><glyph glyph-name="uniF037" unicode="&#xf037;" d="M870 578 l-717 0 q-11 0 -18 -7 q-8 -8 -8 -19 l1 -537 l128 77 l614 0 q11 0 19 8 q7 7 7 18 l0 434 q0 11 -7 19 q-8 7 -19 7 ZM426 195 l-35 0 l0 132 q0 25 -10 37 q-10 11 -32 11 q-26 0 -41 -19 q-15 -19 -15 -51 l0 -110 l-34 0 l0 281 l34 0 l0 -104 l6 8 q23 26 57 26 q33 0 51 -18 q18 -18 18 -52 l1 -141 ZM629 219 q-25 -30 -68 -30 q-43 0 -69 30 q-27 30 -27 79 q0 48 26 78 q26 29 70 29 q43 0 69 -30 q25 -30 25 -78 q0 -48 -26 -78 ZM769 372 l-32 0 l0 -135 q0 -7 6 -11 q5 -4 14 -4 l12 0 l0 -27 q-17 -3 -26 -3 q-23 0 -32 10 q-9 10 -9 34 l1 136 l-29 0 l0 28 l29 0 l0 57 l34 0 l0 -57 l32 0 l0 -28 ZM560 376 q-27 0 -43 -21 q-16 -21 -16 -57 q0 -36 16 -57 q16 -21 44 -21 q27 0 43 21 q15 21 15 57 q0 36 -16 57 q-16 21 -43 21 Z" /><glyph glyph-name="uniF038" unicode="&#xf038;" d="M513 683 l-291 -318 l212 0 l0 -450 l158 0 l0 450 l212 0 l-291 318 Z" /><glyph glyph-name="uniF039" unicode="&#xf039;" d="M591 234 l0 450 l-159 0 l0 -450 l-211 0 l291 -318 l291 318 l-212 0 Z" /><glyph glyph-name="uniF03A" unicode="&#xf03a;" d="M632 514 l-273 0 l0 100 l-230 -144 l231 -144 l-1 101 l269 0 q75 -2 125 -52 q50 -50 52 -125 q-2 -75 -52 -125 q-50 -50 -125 -52 l-356 0 l0 -87 l360 0 q112 3 187 78 q74 74 77 186 q-3 112 -77 187 q-75 74 -187 77 Z" /><glyph glyph-name="uniF03B" unicode="&#xf03b;" d="M804 -38 l-21 0 l0 518 l21 0 q19 -1 32 -14 q13 -13 14 -32 l0 -426 q-1 -19 -14 -32 q-13 -13 -32 -14 ZM287 -38 l0 518 l45 0 l0 45 q1 48 33 80 q31 31 79 32 l136 1 q48 -1 80 -32 q31 -32 32 -80 l0 -46 l45 0 l0 -518 l-450 0 ZM602 525 q0 7 -5 15 q-6 7 -18 8 l-134 0 q-7 0 -14 -5 q-8 -6 -9 -18 l1 -45 l179 0 l0 45 ZM174 8 l0 427 q1 19 14 32 q13 13 32 14 l21 -1 l0 -518 l-21 0 q-19 1 -32 14 q-13 13 -14 32 Z" /><glyph glyph-name="uniF03D" unicode="&#xf03d;" d="M513 681 q-132 -3 -220 -91 q-88 -88 -91 -220 q19 -141 156 -292 q136 -151 155 -163 q19 12 156 163 q136 151 155 292 q-4 132 -91 220 q-88 88 -220 91 ZM515 9 q-15 10 -121 128 q-107 118 -122 228 q3 103 72 172 q68 68 171 71 q103 -3 172 -71 q68 -69 71 -172 q-15 -110 -121 -228 q-107 -118 -122 -128 ZM513 523 q-43 -1 -71 -29 q-29 -29 -29 -72 q0 -43 29 -71 q28 -29 71 -29 q43 0 72 29 q28 28 29 71 q-2 43 -30 72 q-29 28 -71 29 ZM513 378 q-19 0 -32 13 q-13 13 -13 32 q0 19 13 32 q13 13 32 13 q19 0 32 -13 q13 -13 13 -32 q0 -19 -13 -32 q-13 -13 -32 -13 Z" /><glyph glyph-name="uniF040" unicode="&#xf040;" d="M314 411 l396 0 q14 0 24 10 q9 9 9 23 q0 14 -9 24 q-10 9 -24 9 l-396 0 q-14 0 -23 -9 q-10 -10 -10 -24 q0 -14 10 -23 q9 -10 23 -10 ZM710 323 l-396 0 q-14 0 -23 -9 q-10 -10 -10 -24 q0 -14 10 -23 q9 -10 23 -10 l396 0 q14 0 24 10 q9 9 9 23 q0 14 -9 24 q-10 9 -24 9 ZM896 89 l0 534 q-1 22 -15 36 q-14 14 -36 15 l-666 0 q-22 -1 -36 -15 q-14 -14 -15 -36 l0 -534 q1 -22 15 -36 q14 -14 36 -15 l146 0 l0 -96 q0 -8 5 -13 q5 -5 12 -5 q7 0 12 4 l145 110 l346 0 q22 1 36 15 q14 14 15 36 ZM830 583 l0 -454 q0 -11 -7 -18 q-8 -8 -19 -8 l-306 1 l-115 -87 l0 87 l-164 0 q-11 0 -18 8 q-8 7 -8 18 l1 453 q0 11 8 19 q7 7 18 7 l585 -1 q11 0 18 -7 q7 -7 7 -18 Z" /><glyph glyph-name="uniF041" unicode="&#xf041;" d="M898 529 q0 13 -9 22 q-9 9 -22 9 q-13 0 -22 -9 q-9 -9 -10 -22 l0 -462 q0 -11 -7 -18 q-8 -8 -19 -8 l-592 0 q-11 0 -18 8 q-8 7 -8 18 l2 467 q0 11 8 19 q7 7 18 7 l487 -1 q11 0 19 -7 q7 -8 7 -19 l0 -419 q0 -13 9 -22 q9 -9 22 -9 q13 0 22 9 q9 9 9 22 l0 456 q-1 22 -15 36 q-14 14 -36 15 l-561 0 q-22 -1 -36 -15 q-14 -14 -15 -36 l0 -540 q1 -22 15 -36 q14 -14 36 -15 l664 0 q22 1 36 15 q14 14 15 36 l1 499 ZM646 140 q12 0 21 9 q9 9 9 22 q0 13 -8 22 q-9 9 -22 9 l-369 0 q-12 0 -21 -9 q-9 -9 -9 -22 q0 -13 9 -22 q8 -9 21 -9 l369 0 ZM646 336 l-369 0 q-12 0 -21 -9 q-9 -9 -9 -22 q0 -13 9 -22 q8 -9 21 -9 l369 0 q12 0 21 9 q9 9 9 22 q0 13 -8 22 q-9 9 -22 9 ZM646 470 l-369 0 q-12 0 -21 -9 q-9 -9 -9 -22 q0 -13 9 -22 q8 -9 21 -9 l369 0 q12 0 21 9 q9 9 9 22 q0 13 -8 22 q-9 9 -22 9 Z" /><glyph glyph-name="uniF042" unicode="&#xf042;" d="M512 684 q-163 -4 -271 -112 q-109 -109 -113 -272 q4 -163 113 -271 q108 -109 271 -113 q163 4 272 113 q108 108 112 271 q-4 163 -112 272 q-109 108 -272 112 ZM512 -12 q-132 3 -220 92 q-89 88 -92 220 q3 132 92 221 q88 88 220 91 q132 -3 221 -91 q88 -89 91 -221 q-3 -132 -91 -220 q-89 -89 -221 -92 ZM531 402 q-8 8 -19 8 q-11 0 -19 -8 l-164 -165 q-8 -8 -8 -19 q0 -11 9 -19 q8 -8 19 -8 q10 0 19 8 l144 144 l145 -144 q9 -8 20 -8 q10 0 19 9 q8 8 8 19 q0 10 -8 19 l-165 164 Z" /><glyph glyph-name="uniF043" unicode="&#xf043;" d="M896 300 q-4 163 -112 272 q-109 108 -272 112 q-163 -4 -271 -112 q-109 -109 -113 -272 q4 -163 113 -271 q108 -109 271 -113 q163 4 272 113 q108 108 112 271 ZM824 300 q-3 -132 -91 -220 q-89 -89 -221 -92 q-132 3 -220 92 q-88 88 -91 220 q3 132 92 221 q88 88 220 91 q132 -3 220 -91 q88 -89 91 -221 ZM531 198 q-8 -8 -19 -8 q-11 0 -19 8 l-164 165 q-8 8 -8 19 q0 11 9 19 q8 8 19 8 q10 0 19 -8 l144 -145 l145 144 q9 8 20 8 q10 0 19 -8 q8 -9 8 -19 q0 -11 -8 -20 l-165 -163 Z" /><glyph glyph-name="uniF049" unicode="&#xf049;" d="M143 317 q1 -35 24 -58 q22 -23 57 -23 q35 0 58 23 q23 23 23 58 q0 35 -23 58 q-23 22 -58 22 q-35 0 -57 -22 q-23 -23 -24 -58 ZM445 317 q1 -35 24 -58 q23 -23 58 -23 q35 0 58 23 q22 23 22 58 q0 35 -22 58 q-23 22 -58 22 q-35 0 -58 -22 q-23 -23 -24 -58 ZM748 317 q1 -35 24 -58 q22 -23 57 -23 q35 0 58 23 q23 23 23 58 q0 35 -23 58 q-23 22 -58 22 q-35 0 -57 -22 q-23 -23 -24 -58 Z" /><glyph glyph-name="uniE001" unicode="&#xe001;" d="M500 685 q-159 -4 -265 -110 q-106 -106 -110 -265 q4 -159 110 -265 q106 -106 265 -110 q159 4 265 110 q106 106 110 265 q-4 159 -109 265 q-106 106 -266 110 ZM500 3 q-131 3 -217 90 q-87 86 -90 217 q3 131 90 218 q86 86 217 89 q131 -3 218 -89 q86 -87 89 -218 q-3 -130 -89 -217 q-87 -87 -218 -90 ZM547 105 l55 0 l0 113 l55 0 l0 42 l-55 0 l0 257 l-62 0 l-182 -264 l0 -35 l189 0 l0 -113 ZM547 260 l-134 0 l103 141 q14 27 31 61 l3 0 q-3 -31 -3 -65 l0 -137 Z" /><glyph glyph-name="uniF04F" unicode="&#xf04f;" d="M500 685 q-159 -4 -265 -110 q-106 -106 -110 -265 q4 -159 110 -265 q106 -106 265 -110 q159 4 265 110 q106 106 110 265 q-4 159 -109 265 q-106 106 -266 110 ZM500 3 q-131 3 -217 90 q-87 86 -90 217 q3 131 90 218 q86 86 217 89 q131 -3 218 -89 q86 -87 89 -218 q-3 -130 -89 -217 q-87 -87 -218 -90 ZM395 172 l-14 -43 q14 -10 43 -18 q29 -9 64 -9 q72 3 110 37 q41 33 41 83 q-3 43 -28 66 q-27 27 -65 37 q76 30 76 93 q0 40 -28 67 q-31 26 -89 30 q-35 0 -66 -10 q-27 -10 -44 -20 l14 -40 q17 10 37 17 q21 10 45 10 q41 0 59 -20 q17 -17 17 -40 q-4 -37 -31 -54 q-31 -16 -62 -16 l-31 0 l0 -40 l31 0 q41 0 72 -17 q31 -20 35 -63 q0 -27 -21 -50 q-21 -23 -72 -27 q-31 0 -55 10 q-24 7 -38 17 Z" /><glyph glyph-name="uniF051" unicode="&#xf051;" d="M500 685 q-159 -4 -265 -110 q-106 -106 -110 -265 q4 -159 110 -265 q106 -106 265 -110 q159 4 265 110 q106 106 110 265 q-4 159 -109 265 q-106 106 -266 110 ZM500 3 q-131 3 -217 90 q-87 86 -90 217 q3 131 90 218 q86 86 217 89 q131 -3 218 -89 q86 -87 89 -218 q-3 -130 -89 -217 q-87 -87 -218 -90 ZM628 467 l0 47 l-194 0 l-24 -191 q21 3 54 3 q60 0 87 -27 q30 -23 30 -63 q0 -41 -30 -64 q-27 -23 -63 -23 q-31 0 -54 6 q-20 7 -34 17 l-13 -44 q13 -10 40 -16 q27 -7 61 -7 q63 0 107 40 q40 37 40 97 q0 37 -17 64 q-17 27 -40 40 q-37 24 -87 24 q-20 -4 -34 -4 l17 101 l154 0 Z" /><glyph glyph-name="uniF04E" unicode="&#xf04e;" d="M500 685 q-159 -4 -265 -110 q-106 -106 -110 -265 q4 -159 110 -265 q106 -106 265 -110 q159 4 265 110 q106 106 110 265 q-4 159 -109 265 q-106 106 -266 110 ZM500 3 q-131 3 -217 90 q-87 86 -90 217 q3 131 90 218 q86 86 217 89 q131 -3 218 -89 q86 -87 89 -218 q-3 -130 -89 -217 q-87 -87 -218 -90 ZM379 105 l261 0 l0 47 l-183 0 l30 30 q68 61 106 112 q37 51 37 105 q0 48 -31 82 q-30 34 -95 37 q-33 0 -64 -14 q-27 -10 -51 -27 l17 -40 q17 13 37 23 q24 11 51 11 q44 0 61 -24 q21 -21 21 -54 q0 -44 -38 -92 q-37 -47 -115 -122 l-44 -41 l0 -33 Z" /><glyph glyph-name="uniF04D" unicode="&#xf04d;" d="M479 466 l0 -361 l55 0 l0 413 l-48 0 l-90 -48 l10 -45 l73 41 ZM500 685 q-159 -4 -265 -110 q-106 -106 -110 -265 q4 -159 110 -265 q106 -106 265 -110 q159 4 265 110 q106 106 110 265 q-4 159 -109 265 q-106 106 -266 110 ZM500 3 q-131 3 -217 90 q-87 86 -90 217 q3 131 90 218 q86 86 217 89 q131 -3 218 -89 q86 -87 89 -218 q-3 -130 -89 -217 q-87 -87 -218 -90 Z" /></font>
</defs>
</svg>
